<svg width="20" height="18" viewBox="0 0 20 18" fill="none" xmlns="http://www.w3.org/2000/svg">
    <path d="M20 2.79758C19.2642 3.12425 18.4733 3.34425 17.6433 3.44341C18.4908 2.93591 19.1417 2.13175 19.4475 1.17341C18.655 1.64341 17.7767 1.98508 16.8417 2.16925C16.0942 1.37175 15.0267 0.873413 13.8467 0.873413C11.1975 0.873413 9.25083 3.34508 9.84917 5.91091C6.44 5.74008 3.41667 4.10675 1.3925 1.62425C0.3175 3.46841 0.835 5.88091 2.66167 7.10258C1.99 7.08091 1.35667 6.89675 0.804167 6.58925C0.759167 8.49008 2.12167 10.2684 4.095 10.6642C3.5175 10.8209 2.885 10.8576 2.24167 10.7342C2.76333 12.3642 4.27833 13.5501 6.075 13.5834C4.35 14.9359 2.17667 15.5401 0 15.2834C1.81583 16.4476 3.97333 17.1267 6.29 17.1267C13.9083 17.1267 18.2125 10.6926 17.9525 4.92175C18.7542 4.34258 19.45 3.62008 20 2.79758Z" fill="#202124"/>
</svg>
