<svg width="332" height="327" viewBox="0 0 332 327" fill="none" xmlns="http://www.w3.org/2000/svg">
    <path d="M279.779 298.495H53.0559C40.1007 298.495 29.317 288.704 28.8168 275.758C27.7629 248.484 28.0147 200.61 38.5343 154.192C53.1178 89.8407 87.4351 28.2855 165.365 28.2856C220.348 28.2856 253.882 58.928 274.177 99.575C296.74 144.763 302.941 202.317 304.063 243.879C304.137 246.635 304.189 249.32 304.222 251.927C304.335 260.827 304.226 268.811 304.025 275.55C303.638 288.581 292.816 298.495 279.779 298.495Z" stroke="#FBBC04" stroke-width="55.1918"/>
    <path d="M304.222 251.927C304.335 260.827 304.226 268.811 304.025 275.55C303.638 288.581 292.816 298.495 279.779 298.495H53.0559C40.1007 298.495 29.317 288.704 28.8168 275.758C27.7629 248.484 28.0147 200.61 38.5343 154.192C53.1178 89.8407 87.4351 28.2855 165.365 28.2856C220.348 28.2856 253.882 58.928 274.177 99.575" stroke="#34A853" stroke-width="55.1918" stroke-linecap="round"/>
    <path d="M38.5345 154.192C28.0149 200.61 27.7631 248.484 28.817 275.758C29.3172 288.704 40.1009 298.496 53.0561 298.496H279.78C292.816 298.496 303.638 288.581 304.025 275.55C304.226 268.811 304.335 260.827 304.222 251.927" stroke="#4184F3" stroke-width="55.1918" stroke-linecap="round"/>
    <path d="M304.063 248.37L304.063 247.328" stroke="#EA4335" stroke-width="55.1918" stroke-linecap="round"/>
    <path d="M124.546 154.767H209.633" stroke="#FBBC04" stroke-width="39.0942" stroke-linecap="round"/>
    <path d="M124.546 216.858H209.633" stroke="#EA4335" stroke-width="39.0942" stroke-linecap="round"/>
</svg>
