<svg width="412" height="41" viewBox="0 0 412 41" fill="none" xmlns="http://www.w3.org/2000/svg">
    <path d="M23.0986 5.38086H13.501V32H9.58398V5.38086H0.00683594V2.14062H23.0986V5.38086ZM30.7275 12.4971C32.4092 10.4326 34.5967 9.40039 37.29 9.40039C41.9795 9.40039 44.3447 12.0459 44.3857 17.3369V32H40.5918V17.3164C40.5781 15.7168 40.209 14.5342 39.4844 13.7686C38.7734 13.0029 37.6592 12.6201 36.1416 12.6201C34.9111 12.6201 33.8311 12.9482 32.9014 13.6045C31.9717 14.2607 31.2471 15.1221 30.7275 16.1885V32H26.9336V0.5H30.7275V12.4971ZM59.2744 32.4102C56.2666 32.4102 53.8193 31.4258 51.9326 29.457C50.0459 27.4746 49.1025 24.8291 49.1025 21.5205V20.8232C49.1025 18.6221 49.5195 16.6602 50.3535 14.9375C51.2012 13.2012 52.377 11.8477 53.8809 10.877C55.3984 9.89258 57.0391 9.40039 58.8027 9.40039C61.6875 9.40039 63.9297 10.3506 65.5293 12.251C67.1289 14.1514 67.9287 16.8721 67.9287 20.4131V21.9922H52.8965C52.9512 24.1797 53.5869 25.9502 54.8037 27.3037C56.0342 28.6436 57.5928 29.3135 59.4795 29.3135C60.8193 29.3135 61.9541 29.04 62.8838 28.4932C63.8135 27.9463 64.627 27.2217 65.3242 26.3193L67.6416 28.124C65.7822 30.9814 62.9932 32.4102 59.2744 32.4102ZM58.8027 12.5176C57.2715 12.5176 55.9863 13.0781 54.9473 14.1992C53.9082 15.3066 53.2656 16.8652 53.0195 18.875H64.1348V18.5879C64.0254 16.6602 63.5059 15.1699 62.5762 14.1172C61.6465 13.0508 60.3887 12.5176 58.8027 12.5176ZM105.396 28.083C104.385 29.5322 102.97 30.6191 101.151 31.3438C99.3467 32.0547 97.2412 32.4102 94.835 32.4102C92.4014 32.4102 90.2412 31.8428 88.3545 30.708C86.4678 29.5596 85.0049 27.9326 83.9658 25.8271C82.9404 23.7217 82.4141 21.2812 82.3867 18.5059V15.9014C82.3867 11.4033 83.4326 7.91699 85.5244 5.44238C87.6299 2.96777 90.583 1.73047 94.3838 1.73047C97.501 1.73047 100.01 2.53027 101.91 4.12988C103.811 5.71582 104.973 7.97168 105.396 10.8975H101.459C100.721 6.94629 98.3691 4.9707 94.4043 4.9707C91.7656 4.9707 89.7627 5.90039 88.3955 7.75977C87.042 9.60547 86.3584 12.2852 86.3447 15.7988V18.2393C86.3447 21.5889 87.1104 24.2549 88.6416 26.2373C90.1729 28.2061 92.2441 29.1904 94.8555 29.1904C96.332 29.1904 97.624 29.0264 98.7314 28.6982C99.8389 28.3701 100.755 27.8164 101.479 27.0371V20.3311H94.5684V17.1318H105.396V28.083ZM110.38 20.7002C110.38 18.5264 110.804 16.5713 111.651 14.835C112.513 13.0986 113.702 11.7588 115.22 10.8154C116.751 9.87207 118.494 9.40039 120.449 9.40039C123.471 9.40039 125.911 10.4463 127.771 12.5381C129.644 14.6299 130.58 17.4121 130.58 20.8848V21.1514C130.58 23.3115 130.163 25.2529 129.329 26.9756C128.509 28.6846 127.326 30.0176 125.781 30.9746C124.25 31.9316 122.486 32.4102 120.49 32.4102C117.482 32.4102 115.042 31.3643 113.169 29.2725C111.31 27.1807 110.38 24.4121 110.38 20.9668V20.7002ZM114.194 21.1514C114.194 23.6123 114.762 25.5879 115.896 27.0781C117.045 28.5684 118.576 29.3135 120.49 29.3135C122.418 29.3135 123.949 28.5615 125.084 27.0576C126.219 25.54 126.786 23.4209 126.786 20.7002C126.786 18.2666 126.205 16.2979 125.043 14.7939C123.895 13.2764 122.363 12.5176 120.449 12.5176C118.576 12.5176 117.065 13.2627 115.917 14.7529C114.769 16.2432 114.194 18.376 114.194 21.1514ZM134.333 20.7002C134.333 18.5264 134.757 16.5713 135.604 14.835C136.466 13.0986 137.655 11.7588 139.173 10.8154C140.704 9.87207 142.447 9.40039 144.402 9.40039C147.424 9.40039 149.864 10.4463 151.724 12.5381C153.597 14.6299 154.533 17.4121 154.533 20.8848V21.1514C154.533 23.3115 154.116 25.2529 153.282 26.9756C152.462 28.6846 151.279 30.0176 149.734 30.9746C148.203 31.9316 146.439 32.4102 144.443 32.4102C141.436 32.4102 138.995 31.3643 137.122 29.2725C135.263 27.1807 134.333 24.4121 134.333 20.9668V20.7002ZM138.147 21.1514C138.147 23.6123 138.715 25.5879 139.85 27.0781C140.998 28.5684 142.529 29.3135 144.443 29.3135C146.371 29.3135 147.902 28.5615 149.037 27.0576C150.172 25.54 150.739 23.4209 150.739 20.7002C150.739 18.2666 150.158 16.2979 148.996 14.7939C147.848 13.2764 146.316 12.5176 144.402 12.5176C142.529 12.5176 141.019 13.2627 139.87 14.7529C138.722 16.2432 138.147 18.376 138.147 21.1514ZM158.389 20.7207C158.389 17.2617 159.188 14.5137 160.788 12.4766C162.388 10.4258 164.507 9.40039 167.146 9.40039C169.853 9.40039 171.965 10.3574 173.482 12.2715L173.667 9.81055H177.133V31.4668C177.133 34.3379 176.278 36.6006 174.569 38.2549C172.874 39.9092 170.591 40.7363 167.72 40.7363C166.12 40.7363 164.555 40.3945 163.023 39.7109C161.492 39.0273 160.323 38.0908 159.517 36.9014L161.485 34.625C163.112 36.6348 165.102 37.6396 167.453 37.6396C169.299 37.6396 170.734 37.1201 171.76 36.0811C172.799 35.042 173.318 33.5791 173.318 31.6924V29.7852C171.801 31.5352 169.729 32.4102 167.104 32.4102C164.507 32.4102 162.401 31.3643 160.788 29.2725C159.188 27.1807 158.389 24.3301 158.389 20.7207ZM162.203 21.1514C162.203 23.6533 162.716 25.6221 163.741 27.0576C164.767 28.4795 166.202 29.1904 168.048 29.1904C170.44 29.1904 172.197 28.1035 173.318 25.9297V15.7988C172.156 13.6797 170.413 12.6201 168.089 12.6201C166.243 12.6201 164.801 13.3379 163.762 14.7734C162.723 16.209 162.203 18.335 162.203 21.1514ZM186.997 32H183.203V0.5H186.997V32ZM202.296 32.4102C199.288 32.4102 196.841 31.4258 194.954 29.457C193.067 27.4746 192.124 24.8291 192.124 21.5205V20.8232C192.124 18.6221 192.541 16.6602 193.375 14.9375C194.223 13.2012 195.398 11.8477 196.902 10.877C198.42 9.89258 200.061 9.40039 201.824 9.40039C204.709 9.40039 206.951 10.3506 208.551 12.251C210.15 14.1514 210.95 16.8721 210.95 20.4131V21.9922H195.918C195.973 24.1797 196.608 25.9502 197.825 27.3037C199.056 28.6436 200.614 29.3135 202.501 29.3135C203.841 29.3135 204.976 29.04 205.905 28.4932C206.835 27.9463 207.648 27.2217 208.346 26.3193L210.663 28.124C208.804 30.9814 206.015 32.4102 202.296 32.4102ZM201.824 12.5176C200.293 12.5176 199.008 13.0781 197.969 14.1992C196.93 15.3066 196.287 16.8652 196.041 18.875H207.156V18.5879C207.047 16.6602 206.527 15.1699 205.598 14.1172C204.668 13.0508 203.41 12.5176 201.824 12.5176Z" fill="#8B8B8B"/>
    <path d="M248.828 28.124C247.748 29.5322 246.251 30.5986 244.337 31.3232C242.423 32.0479 240.249 32.4102 237.815 32.4102C235.313 32.4102 233.099 31.8428 231.171 30.708C229.243 29.5732 227.753 27.9531 226.7 25.8477C225.661 23.7285 225.121 21.2607 225.08 18.4443V16.1064C225.08 11.5947 226.16 8.07422 228.32 5.54492C230.48 3.00195 233.495 1.73047 237.364 1.73047C240.687 1.73047 243.325 2.55078 245.28 4.19141C247.235 5.83203 248.411 8.19727 248.808 11.2871H243.722C243.147 7.69141 241.062 5.89355 237.467 5.89355C235.143 5.89355 233.372 6.73438 232.155 8.41602C230.952 10.084 230.33 12.5381 230.289 15.7783V18.0752C230.289 21.3018 230.966 23.8105 232.319 25.6016C233.687 27.3789 235.58 28.2676 238 28.2676C240.652 28.2676 242.539 27.666 243.66 26.4629V20.6182H237.508V16.6807H248.828V28.124ZM299.359 25.6836L304.056 9.81055H309.203L301.513 32H297.186L289.434 9.81055H294.602L299.359 25.6836ZM389.696 14.3633C389.04 14.2539 388.363 14.1992 387.666 14.1992C385.383 14.1992 383.845 15.0742 383.052 16.8242V32H378.068V9.81055H382.826L382.949 12.292C384.152 10.3643 385.82 9.40039 387.953 9.40039C388.664 9.40039 389.252 9.49609 389.717 9.6875L389.696 14.3633Z" fill="#4582F6"/>
    <path d="M265.665 14.3633C265.009 14.2539 264.332 14.1992 263.635 14.1992C261.352 14.1992 259.813 15.0742 259.021 16.8242V32H254.037V9.81055H258.795L258.918 12.292C260.121 10.3643 261.789 9.40039 263.922 9.40039C264.633 9.40039 265.221 9.49609 265.686 9.6875L265.665 14.3633ZM342.651 24.8633L347.163 9.81055H352.475L343.656 35.3633C342.303 39.0957 340.006 40.9619 336.766 40.9619C336.041 40.9619 335.241 40.8389 334.366 40.5928V36.7373L335.31 36.7988C336.567 36.7988 337.511 36.5664 338.14 36.1016C338.782 35.6504 339.288 34.8848 339.657 33.8047L340.375 31.8975L332.582 9.81055H337.955L342.651 24.8633Z" fill="#E02F35"/>
    <path d="M282.071 32C281.853 31.5762 281.661 30.8857 281.497 29.9287C279.911 31.583 277.97 32.4102 275.673 32.4102C273.444 32.4102 271.626 31.7744 270.218 30.5029C268.81 29.2314 268.105 27.6592 268.105 25.7861C268.105 23.4209 268.98 21.6094 270.73 20.3516C272.494 19.0801 275.01 18.4443 278.277 18.4443H281.333V16.9883C281.333 15.8398 281.012 14.9238 280.369 14.2402C279.727 13.543 278.749 13.1943 277.437 13.1943C276.302 13.1943 275.372 13.4814 274.647 14.0557C273.923 14.6162 273.561 15.334 273.561 16.209H268.577C268.577 14.9922 268.98 13.8574 269.787 12.8047C270.594 11.7383 271.688 10.9043 273.068 10.3027C274.463 9.70117 276.015 9.40039 277.724 9.40039C280.321 9.40039 282.393 10.0566 283.938 11.3691C285.482 12.668 286.275 14.5 286.316 16.8652V26.873C286.316 28.8691 286.597 30.4619 287.157 31.6514V32H282.071ZM276.596 28.4111C277.58 28.4111 278.503 28.1719 279.364 27.6934C280.239 27.2148 280.896 26.5723 281.333 25.7656V21.582H278.646C276.801 21.582 275.413 21.9033 274.483 22.5459C273.554 23.1885 273.089 24.0977 273.089 25.2734C273.089 26.2305 273.403 26.9961 274.032 27.5703C274.675 28.1309 275.529 28.4111 276.596 28.4111ZM368.614 32C368.396 31.5762 368.204 30.8857 368.04 29.9287C366.454 31.583 364.513 32.4102 362.216 32.4102C359.987 32.4102 358.169 31.7744 356.761 30.5029C355.353 29.2314 354.648 27.6592 354.648 25.7861C354.648 23.4209 355.523 21.6094 357.273 20.3516C359.037 19.0801 361.553 18.4443 364.82 18.4443H367.876V16.9883C367.876 15.8398 367.555 14.9238 366.912 14.2402C366.27 13.543 365.292 13.1943 363.979 13.1943C362.845 13.1943 361.915 13.4814 361.19 14.0557C360.466 14.6162 360.104 15.334 360.104 16.209H355.12C355.12 14.9922 355.523 13.8574 356.33 12.8047C357.137 11.7383 358.23 10.9043 359.611 10.3027C361.006 9.70117 362.558 9.40039 364.267 9.40039C366.864 9.40039 368.936 10.0566 370.48 11.3691C372.025 12.668 372.818 14.5 372.859 16.8652V26.873C372.859 28.8691 373.14 30.4619 373.7 31.6514V32H368.614ZM363.139 28.4111C364.123 28.4111 365.046 28.1719 365.907 27.6934C366.782 27.2148 367.438 26.5723 367.876 25.7656V21.582H365.189C363.344 21.582 361.956 21.9033 361.026 22.5459C360.097 23.1885 359.632 24.0977 359.632 25.2734C359.632 26.2305 359.946 26.9961 360.575 27.5703C361.218 28.1309 362.072 28.4111 363.139 28.4111Z" fill="#F6C400"/>
    <path d="M322.103 32.4102C318.944 32.4102 316.381 31.4189 314.412 29.4365C312.457 27.4404 311.479 24.7881 311.479 21.4795V20.8643C311.479 18.6494 311.903 16.6738 312.751 14.9375C313.612 13.1875 314.815 11.8271 316.36 10.8564C317.905 9.88574 319.628 9.40039 321.528 9.40039C324.55 9.40039 326.881 10.3643 328.521 12.292C330.176 14.2197 331.003 16.9473 331.003 20.4746V22.4844H316.504C316.654 24.3164 317.263 25.7656 318.329 26.832C319.409 27.8984 320.763 28.4316 322.39 28.4316C324.673 28.4316 326.532 27.5088 327.968 25.6631L330.654 28.2266C329.766 29.5527 328.576 30.585 327.086 31.3232C325.609 32.0479 323.948 32.4102 322.103 32.4102ZM321.508 13.3994C320.141 13.3994 319.033 13.8779 318.186 14.835C317.352 15.792 316.818 17.125 316.586 18.834H326.081V18.4648C325.972 16.7969 325.527 15.5391 324.748 14.6914C323.969 13.8301 322.889 13.3994 321.508 13.3994ZM391.911 20.7412C391.911 17.3232 392.704 14.582 394.29 12.5176C395.876 10.4395 398.002 9.40039 400.668 9.40039C403.02 9.40039 404.92 10.2207 406.369 11.8613V0.5H411.353V32H406.841L406.595 29.7031C405.104 31.5078 403.115 32.4102 400.627 32.4102C398.029 32.4102 395.924 31.3643 394.311 29.2725C392.711 27.1807 391.911 24.3369 391.911 20.7412ZM396.895 21.1719C396.895 23.4277 397.325 25.1914 398.187 26.4629C399.062 27.7207 400.299 28.3496 401.898 28.3496C403.936 28.3496 405.426 27.4404 406.369 25.6221V16.1475C405.453 14.3701 403.977 13.4814 401.939 13.4814C400.326 13.4814 399.082 14.124 398.207 15.4092C397.332 16.6807 396.895 18.6016 396.895 21.1719Z" fill="#36BC50"/>
</svg>
